<?xml version="1.0" standalone="no"?>
<!DOCTYPE svg PUBLIC "-//W3C//DTD SVG 20010904//EN"
 "http://www.w3.org/TR/2001/REC-SVG-20010904/DTD/svg10.dtd">
<svg version="1.0" xmlns="http://www.w3.org/2000/svg"
 width="300.000000pt" height="300.000000pt" viewBox="0 0 300.000000 300.000000"
 preserveAspectRatio="xMidYMid meet">
<metadata>
Created by potrace 1.14, written by Peter Selinger 2001-2017
</metadata>
<g transform="translate(0.000000,300.000000) scale(0.100000,-0.100000)"
fill="#000000" stroke="none">
<path d="M589 2474 c-141 -24 -255 -83 -351 -181 -57 -57 -108 -124 -108 -140
0 -5 -5 -14 -12 -21 -32 -32 -70 -191 -70 -292 0 -268 167 -512 412 -604 71
-26 113 -35 205 -42 92 -6 168 -14 185 -19 8 -2 31 -6 50 -9 156 -24 305 -107
376 -211 19 -27 114 -250 129 -301 12 -44 63 -101 110 -123 87 -41 203 -14
260 58 21 27 47 55 207 218 137 141 162 151 403 168 178 12 233 19 281 35 66
23 131 67 164 110 14 18 30 38 36 44 8 9 22 34 29 56 1 3 7 19 15 35 14 34 18
172 7 225 -29 127 -164 258 -297 285 -96 21 -211 0 -294 -53 -90 -56 -127
-114 -221 -337 -69 -165 -89 -199 -155 -265 -54 -54 -130 -105 -175 -117 -134
-36 -207 -16 -312 84 -130 124 -145 173 -136 447 13 417 8 464 -59 601 -78
158 -228 285 -393 332 -98 28 -190 33 -286 17z"/>
<path d="M1632 1670 c-140 -52 -205 -187 -158 -327 33 -99 124 -164 230 -165
72 0 78 1 134 30 42 22 94 83 114 132 6 14 12 51 13 82 10 173 -172 307 -333
248z"/>
<path d="M935 960 c-128 -28 -181 -171 -100 -269 52 -61 127 -76 200 -41 137
66 114 267 -35 307 -19 5 -48 6 -65 3z"/>
<path d="M2239 752 c-88 -44 -69 -169 29 -187 62 -11 115 35 115 101 0 48 -14
71 -53 87 -42 17 -55 17 -91 -1z"/>
</g>
</svg>
